{
  "accessors": [
    {
      "bufferView": 2,
      "componentType": 5126,
      "count": 5356,
      "max": [
        0.11570200324058533,
        0.095787003636360168,
        0.58790498971939087
      ],
      "min": [
        -0.13598300516605377,
        -0.083956003189086914,
        0.0013350000372156501
      ],
      "type": "VEC3"
    },
    {
      "bufferView": 2,
      "byteOffset": 64272,
      "componentType": 5126,
      "count": 5356,
      "max": [
        0.075697705149650574,
        -0.06049714982509613,
        -0.026800008490681648
      ],
      "min": [
        -0.73593777418136597,
        -0.7478976845741272,
        -0.99615311622619629
      ],
      "type": "VEC3"
    },
    {
      "bufferView": 3,
      "componentType": 5126,
      "count": 5356,
      "max": [
        0.99756884574890137,
        0.99752366542816162,
        0.99932223558425903,
        1
      ],
      "min": [
        -0.99761652946472168,
        -0.99751865863800049,
        -0.99931943416595459,
        -1
      ],
      "type": "VEC4"
    },
    {
      "bufferView": 1,
      "componentType": 5126,
      "count": 5356,
      "max": [
        0.99659997224807739,
        0.99190002679824829
      ],
      "min": [
        0.0049000000581145287,
        0.0074999998323619366
      ],
      "type": "VEC2"
    },
    {
      "bufferView": 0,
      "componentType": 5125,
      "count": 19152,
      "max": [
        5355
      ],
      "min": [
        0
      ],
      "type": "SCALAR"
    }
  ],
  "asset": {
    "extras": {
      "author": "Nemix (https://sketchfab.com/nemix)",
      "license": "CC-BY-4.0 (http://creativecommons.org/licenses/by/4.0/)",
      "source": "https://sketchfab.com/models/6a79ab6b70b747b68e787da1458ab582",
      "title": "Goku"
    },
    "generator": "Sketchfab-3.19.3",
    "version": "2.0"
  },
  "bufferViews": [
    {
      "buffer": 0,
      "byteLength": 76608,
      "byteOffset": 0,
      "name": "floatBufferViews",
      "target": 34963
    },
    {
      "buffer": 0,
      "byteLength": 42848,
      "byteOffset": 76608,
      "byteStride": 8,
      "name": "floatBufferViews",
      "target": 34962
    },
    {
      "buffer": 0,
      "byteLength": 128544,
      "byteOffset": 119456,
      "byteStride": 12,
      "name": "floatBufferViews",
      "target": 34962
    },
    {
      "buffer": 0,
      "byteLength": 85696,
      "byteOffset": 248000,
      "byteStride": 16,
      "name": "floatBufferViews",
      "target": 34962
    }
  ],
  "buffers": [
    {
      "byteLength": 333696,
      "uri": "scene.bin"
    }
  ],
  "images": [
    {
      "uri": "textures/Scene_-_Root_normal.jpg"
    },
    {
      "uri": "textures/Scene_-_Root_metallicRoughness.png"
    },
    {
      "uri": "textures/Scene_-_Root_baseColor.jpg"
    }
  ],
  "materials": [
    {
      "doubleSided": true,
      "name": "Scene_-_Root",
      "normalTexture": {
        "index": 0,
        "scale": 0.59927591459999996,
        "texCoord": 0
      },
      "pbrMetallicRoughness": {
        "baseColorFactor": [
          1,
          1,
          1,
          1
        ],
        "baseColorTexture": {
          "index": 2,
          "texCoord": 0
        },
        "metallicFactor": 0,
        "metallicRoughnessTexture": {
          "index": 1,
          "texCoord": 0
        },
        "roughnessFactor": 0.59999999999999998
      }
    }
  ],
  "meshes": [
    {
      "primitives": [
        {
          "attributes": {
            "NORMAL": 1,
            "POSITION": 0,
            "TANGENT": 2,
            "TEXCOORD_0": 3
          },
          "indices": 4,
          "material": 0,
          "mode": 4
        }
      ]
    }
  ],
  "nodes": [
    {
      "children": [
        1
      ],
      "name": "RootNode (gltf orientation matrix)",
      "rotation": [
        -0.70710678118654746,
        -0,
        -0,
        0.70710678118654757
      ]
    },
    {
      "children": [
        2
      ],
      "matrix": [
        -0.98990082740783691,
        0.14176179468631744,
        0,
        0,
        -0.14176179468631744,
        -0.98990082740783691,
        0,
        0,
        0,
        0,
        1,
        0,
        -0.019340032711625099,
        0.013208840973675251,
        0,
        1
      ],
      "name": "RootNode (model correction matrix)"
    },
    {
      "children": [
        3
      ],
      "name": "untitled.obj.cleaner.materialmerger.gles"
    },
    {
      "mesh": 0,
      "name": ""
    }
  ],
  "samplers": [
    {
      "magFilter": 9729,
      "minFilter": 9987,
      "wrapS": 10497,
      "wrapT": 10497
    }
  ],
  "scene": 0,
  "scenes": [
    {
      "name": "OSG_Scene",
      "nodes": [
        0
      ]
    }
  ],
  "textures": [
    {
      "sampler": 0,
      "source": 0
    },
    {
      "sampler": 0,
      "source": 1
    },
    {
      "sampler": 0,
      "source": 2
    }
  ]
}

