{
  "accessors": [
    {
      "bufferView": 2,
      "componentType": 5126,
      "count": 6117,
      "max": [
        120,
        120,
        120
      ],
      "min": [
        0,
        0,
        0
      ],
      "type": "VEC3"
    },
    {
      "bufferView": 2,
      "byteOffset": 73404,
      "componentType": 5126,
      "count": 6117,
      "max": [
        0.99640923738479614,
        0.99724209308624268,
        0.99640965461730957
      ],
      "min": [
        -0.99724209308624268,
        -0.99640923738479614,
        -0.99724209308624268
      ],
      "type": "VEC3"
    },
    {
      "bufferView": 3,
      "componentType": 5126,
      "count": 6117,
      "max": [
        0.99971872568130493,
        1,
        0.27880105376243591,
        1
      ],
      "min": [
        -0.99980336427688599,
        -1,
        -0.27880465984344482,
        1
      ],
      "type": "VEC4"
    },
    {
      "bufferView": 1,
      "componentType": 5126,
      "count": 6117,
      "max": [
        71.033096313476562,
        130.927001953125
      ],
      "min": [
        -71.033096313476562,
        -59.792301177978516
      ],
      "type": "VEC2"
    },
    {
      "bufferView": 0,
      "componentType": 5125,
      "count": 6237,
      "max": [
        6116
      ],
      "min": [
        0
      ],
      "type": "SCALAR"
    },
    {
      "bufferView": 2,
      "byteOffset": 146808,
      "componentType": 5126,
      "count": 6435,
      "max": [
        120,
        120,
        120
      ],
      "min": [
        0,
        0,
        0
      ],
      "type": "VEC3"
    },
    {
      "bufferView": 2,
      "byteOffset": 224028,
      "componentType": 5126,
      "count": 6435,
      "max": [
        1,
        1,
        1
      ],
      "min": [
        -1,
        -1,
        -1
      ],
      "type": "VEC3"
    },
    {
      "bufferView": 3,
      "byteOffset": 97872,
      "componentType": 5126,
      "count": 6435,
      "max": [
        1,
        1,
        0.29056146740913391,
        1
      ],
      "min": [
        -1,
        -1,
        -0.28071552515029907,
        1
      ],
      "type": "VEC4"
    },
    {
      "bufferView": 1,
      "byteOffset": 48936,
      "componentType": 5126,
      "count": 6435,
      "max": [
        67.482200622558594,
        120.19200134277344
      ],
      "min": [
        -67.309700012207031,
        -57.599998474121094
      ],
      "type": "VEC2"
    },
    {
      "bufferView": 0,
      "byteOffset": 24948,
      "componentType": 5125,
      "count": 8643,
      "max": [
        6434
      ],
      "min": [
        0
      ],
      "type": "SCALAR"
    }
  ],
  "asset": {
    "extras": {
      "author": "KageG (https://sketchfab.com/KageG)",
      "license": "CC-BY-4.0 (http://creativecommons.org/licenses/by/4.0/)",
      "source": "https://sketchfab.com/3d-models/die-caf23406f4fa4f52bdf41d59fdbd70b9",
      "title": "Die"
    },
    "generator": "Sketchfab-6.34.0",
    "version": "2.0"
  },
  "bufferViews": [
    {
      "buffer": 0,
      "byteLength": 59520,
      "byteOffset": 0,
      "name": "floatBufferViews",
      "target": 34963
    },
    {
      "buffer": 0,
      "byteLength": 100416,
      "byteOffset": 59520,
      "byteStride": 8,
      "name": "floatBufferViews",
      "target": 34962
    },
    {
      "buffer": 0,
      "byteLength": 301248,
      "byteOffset": 159936,
      "byteStride": 12,
      "name": "floatBufferViews",
      "target": 34962
    },
    {
      "buffer": 0,
      "byteLength": 200832,
      "byteOffset": 461184,
      "byteStride": 16,
      "name": "floatBufferViews",
      "target": 34962
    }
  ],
  "buffers": [
    {
      "byteLength": 662016,
      "uri": "scene.bin"
    }
  ],
  "materials": [
    {
      "doubleSided": true,
      "emissiveFactor": [
        0,
        0,
        0
      ],
      "name": "Color_000",
      "pbrMetallicRoughness": {
        "baseColorFactor": [
          0.80000000000000004,
          0.80000000000000004,
          0.80000000000000004,
          1
        ],
        "metallicFactor": 0.56000000000000005,
        "roughnessFactor": 0.5
      }
    },
    {
      "doubleSided": true,
      "emissiveFactor": [
        0,
        0,
        0
      ],
      "name": "Color_A01",
      "pbrMetallicRoughness": {
        "baseColorFactor": [
          0.41591835841330743,
          0.013378929824489382,
          0.013378929824489382,
          1
        ],
        "metallicFactor": 0.75,
        "roughnessFactor": 0.51000000000000001
      }
    }
  ],
  "meshes": [
    {
      "primitives": [
        {
          "attributes": {
            "NORMAL": 1,
            "POSITION": 0,
            "TANGENT": 2,
            "TEXCOORD_0": 3
          },
          "indices": 4,
          "material": 0,
          "mode": 4
        }
      ]
    },
    {
      "primitives": [
        {
          "attributes": {
            "NORMAL": 6,
            "POSITION": 5,
            "TANGENT": 7,
            "TEXCOORD_0": 8
          },
          "indices": 9,
          "material": 1,
          "mode": 4
        }
      ]
    }
  ],
  "nodes": [
    {
      "children": [
        1
      ],
      "name": "RootNode (gltf orientation matrix)",
      "rotation": [
        -0.70710678118654746,
        -0,
        -0,
        0.70710678118654757
      ]
    },
    {
      "children": [
        2
      ],
      "name": "RootNode (model correction matrix)"
    },
    {
      "children": [
        3
      ],
      "matrix": [
        1,
        0,
        0,
        0,
        0,
        1,
        0,
        0,
        0,
        0,
        1,
        0,
        -60,
        -60,
        -2.9391499051055611e-15,
        1
      ],
      "name": "die3.obj.cleaner.gles"
    },
    {
      "children": [
        4,
        5
      ],
      "name": ""
    },
    {
      "mesh": 0,
      "name": ""
    },
    {
      "mesh": 1,
      "name": ""
    }
  ],
  "scene": 0,
  "scenes": [
    {
      "name": "OSG_Scene",
      "nodes": [
        0
      ]
    }
  ]
}

